<svg id="Layer_1" enable-background="new 0 0 512 512" height="512" viewBox="0 0 512 512" width="512" xmlns="http://www.w3.org/2000/svg"><g><path d="m304.013 160.667h-33.071v-49.267c0-8.284-6.69-15-14.942-15s-14.942 6.716-14.942 15v49.267h-33.071c-8.252 0-14.942 6.716-14.942 15s6.69 15 14.942 15h33.071v97.467c0 8.284 6.69 15 14.942 15s14.942-6.716 14.942-15v-97.467h33.071c8.252 0 14.942-6.716 14.942-15s-6.69-15-14.942-15z"/><path d="m496.063 482h-49.075v-49.267c0-8.284-6.69-15-14.942-15h-49.075v-290.266c0-70.286-56.959-127.467-126.971-127.467s-126.971 57.181-126.971 127.467v290.267h-49.076c-8.252 0-14.942 6.716-14.942 15v49.266h-49.074c-8.252 0-14.942 6.716-14.942 15s6.69 15 14.942 15h480.127c8.252 0 14.942-6.716 14.942-15s-6.691-15-14.943-15zm-337.151-354.533c0-53.743 43.554-97.467 97.088-97.467s97.088 43.724 97.088 97.467v290.267h-194.176zm-64.017 354.533v-34.267h322.21v34.267z"/></g></svg>