<?xml version="1.0" encoding="iso-8859-1"?>
<!-- Generator: Adobe Illustrator 19.0.0, SVG Export Plug-In . SVG Version: 6.00 Build 0)  -->
<svg xmlns="http://www.w3.org/2000/svg" xmlns:xlink="http://www.w3.org/1999/xlink" version="1.1" id="Layer_1" x="0px" y="0px" viewBox="0 0 505.003 505.003" style="enable-background:new 0 0 505.003 505.003;" xml:space="preserve" width="512" height="512">
<g>
	<path d="M177.567,236.281c-4.143,0-7.5,3.358-7.5,7.5v33.593c0,4.142,3.357,7.5,7.5,7.5s7.5-3.358,7.5-7.5v-33.593   C185.067,239.639,181.71,236.281,177.567,236.281z"/>
	<path d="M332.093,284.875c4.143,0,7.5-3.358,7.5-7.5v-33.593c0-4.142-3.357-7.5-7.5-7.5s-7.5,3.358-7.5,7.5v33.593   C324.593,281.517,327.95,284.875,332.093,284.875z"/>
	<path d="M439.683,204.68v-18.252c0-49.364-19.229-95.786-54.145-130.712c-26.253-26.264-59.314-43.834-95.606-50.813   c-11.487-2.213-23.3-3.335-35.108-3.335c-101.921,0-184.84,82.928-184.84,184.86v18.393c-1.45-0.094-2.909-0.145-4.368-0.145   C29.435,204.676,0,234.105,0,270.278c0,36.18,29.435,65.615,65.615,65.615c2.207,0,4.402-0.114,6.574-0.33   c3.574,23.096,11.47,45.369,23.389,65.544c15.894,26.9,38.464,49.434,65.339,65.317l0.828,1.476   c12.3,21.919,35.555,35.535,60.688,35.535h64.792c25.134,0,48.389-13.616,60.688-35.535l0.83-1.479   c26.878-15.888,49.449-38.421,65.342-65.317c11.869-20.088,19.75-42.256,23.346-65.246c0.649,0.019,1.299,0.035,1.95,0.035   c36.183,0,65.62-29.433,65.62-65.61C505.003,234.205,475.727,204.843,439.683,204.68z M254.823,16.568   c10.858,0,21.716,1.031,32.273,3.065c33.337,6.41,63.709,22.554,87.833,46.688c32.084,32.093,49.753,74.749,49.753,120.107v18.611   c-64.556-0.725-121.931-9.716-170.595-26.802c-3.909-1.371-8.189,0.684-9.561,4.592c-1.372,3.908,0.684,8.189,4.592,9.561   c50.252,17.643,109.299,26.919,175.563,27.649v15.378l-40.7,63.526l-128.241-15.702c-0.605-0.074-1.217-0.074-1.822,0   l-128.241,15.702l-40.695-63.517v-17.531c18.786-7.137,36.482-19.337,50.291-34.789c11.465-12.829,19.216-26.867,22.646-40.723   c11.012,9.596,30.573,24.018,60.963,37.876c3.767,1.717,8.216,0.056,9.936-3.712c1.719-3.769,0.057-8.217-3.713-9.936   c-24.759-11.29-41.626-22.896-51.416-30.644c-10.597-8.387-15.41-14.183-15.442-14.222c-2.002-2.463-5.34-3.399-8.33-2.337   c-2.991,1.062-4.99,3.893-4.99,7.067c0,15.039-7.4,31.601-20.837,46.636c-10.735,12.012-24.602,22.08-39.106,28.563v-15.247   C84.983,92.767,161.173,16.568,254.823,16.568z M65.615,320.893C37.706,320.893,15,298.187,15,270.278   c0-27.902,22.706-50.602,50.615-50.602c1.467,0,2.924,0.083,4.368,0.205v30.251c-11.42-0.494-26.16,3.143-33.013,18.904   c-1.651,3.799,0.089,8.217,3.888,9.869c0.974,0.423,1.988,0.624,2.986,0.624c2.896,0,5.653-1.687,6.882-4.511   c4.067-9.354,13.248-10.356,19.257-9.888v42.069c0,4.501,0.178,8.988,0.503,13.457C68.879,320.808,67.253,320.893,65.615,320.893z    M334.832,460.559c-9.648,17.195-27.89,27.876-47.606,27.876h-64.792c-19.717,0-37.958-10.681-47.606-27.875l-45.42-80.942V364.67   c0-4.142-3.357-7.5-7.5-7.5s-7.5,3.358-7.5,7.5v16.908c0,1.285,0.33,2.549,0.959,3.67l28.231,50.31   c-13.841-12.008-25.734-26.221-35.104-42.081c-15.38-26.032-23.51-55.866-23.51-86.279v-43.965l29.424,45.925v25.51   c0,4.142,3.357,7.5,7.5,7.5s7.5-3.358,7.5-7.5v-21.069l125.423-15.356l125.423,15.356v66.018L334.832,460.559z M401.172,393.473   c-9.37,15.857-21.263,30.069-35.105,42.078l28.227-50.303c0.629-1.121,0.959-2.385,0.959-3.67v-72.419l29.43-45.934v43.974   C424.683,337.61,416.553,367.443,401.172,393.473z M439.383,320.892c-0.075,0-0.149-0.004-0.223-0.004   c0.336-4.546,0.523-9.111,0.523-13.69v-42.069c6.009-0.466,15.185,0.537,19.25,9.887c1.228,2.825,3.986,4.512,6.882,4.512   c0.998,0,2.013-0.201,2.986-0.624c3.799-1.651,5.539-6.069,3.888-9.868c-6.851-15.758-21.585-19.397-33.006-18.904V219.68   c27.774,0.163,50.32,22.797,50.32,50.602C490.003,298.189,467.295,320.892,439.383,320.892z"/>
</g>















</svg>
