<?xml version="1.0" encoding="iso-8859-1"?>
<!-- Generator: Adobe Illustrator 19.0.0, SVG Export Plug-In . SVG Version: 6.00 Build 0)  -->
<svg version="1.1" id="Layer_1" xmlns="http://www.w3.org/2000/svg" xmlns:xlink="http://www.w3.org/1999/xlink" x="0px" y="0px"
	 viewBox="0 0 511.999 511.999" style="enable-background:new 0 0 511.999 511.999;" xml:space="preserve">
<g>
	<g>
		<rect x="42.071" y="439.148" width="462.327" height="15.208"/>
	</g>
</g>
<g>
	<g>
		<rect x="8.614" y="439.148" width="15.208" height="15.208"/>
	</g>
</g>
<g>
	<g>
		
			<rect x="198.962" y="236.507" transform="matrix(0.2149 -0.9766 0.9766 0.2149 -76.2338 393.389)" width="15.208" height="15.208"/>
	</g>
</g>
<g>
	<g>
		
			<rect x="228.67" y="243.051" transform="matrix(0.2149 -0.9766 0.9766 0.2149 -59.3017 427.5396)" width="15.208" height="15.208"/>
	</g>
</g>
<g>
	<g>
		
			<rect x="80.131" y="210.36" transform="matrix(0.2149 -0.9766 0.9766 0.2149 -143.9911 256.806)" width="15.208" height="15.208"/>
	</g>
</g>
<g>
	<g>
		
			<rect x="109.839" y="216.894" transform="matrix(0.2149 -0.9766 0.9766 0.2149 -127.0485 290.9496)" width="15.208" height="15.208"/>
	</g>
</g>
<g>
	<g>
		
			<rect x="139.555" y="223.439" transform="matrix(0.2149 -0.9766 0.9766 0.2149 -110.1116 325.1104)" width="15.208" height="15.208"/>
	</g>
</g>
<g>
	<g>
		
			<rect x="169.263" y="229.973" transform="matrix(0.2149 -0.9766 0.9766 0.2149 -93.169 359.2541)" width="15.208" height="15.208"/>
	</g>
</g>
<g>
	<g>
		
			<rect x="258.376" y="249.595" transform="matrix(0.2149 -0.9766 0.9766 0.2149 -42.3703 461.6893)" width="15.208" height="15.208"/>
	</g>
</g>
<g>
	<g>
		
			<rect x="377.197" y="275.74" transform="matrix(0.2149 -0.9766 0.9766 0.2149 25.3818 598.2611)" width="15.208" height="15.208"/>
	</g>
</g>
<g>
	<g>
		
			<rect x="406.905" y="282.273" transform="matrix(0.2149 -0.9766 0.9766 0.2149 42.3232 632.4034)" width="15.208" height="15.208"/>
	</g>
</g>
<g>
	<g>
		<rect x="347.489" y="269.206" transform="matrix(0.2149 -0.9766 0.9766 0.2149 8.4379 564.116)" width="15.208" height="15.208"/>
	</g>
</g>
<g>
	<g>
		
			<rect x="288.074" y="256.128" transform="matrix(0.2149 -0.9766 0.9766 0.2149 -25.435 495.8241)" width="15.208" height="15.208"/>
	</g>
</g>
<g>
	<g>
		
			<rect x="317.783" y="262.663" transform="matrix(0.2149 -0.9766 0.9766 0.2149 -8.4927 529.9675)" width="15.208" height="15.207"/>
	</g>
</g>
<g>
	<g>
		<path d="M511.843,342.748c-2.516-20.925-11.24-40.32-25.227-56.085c-13.987-15.766-32.205-26.738-52.681-31.728l-144.278-31.664
			l-98.455-154.97l-50.489-10.658l31.185,135.815L71.202,171.703l-12.19-69.623L27.09,94.301L1.519,199.207
			c-6.949,28.515,10.595,57.369,39.193,64.339l444.326,102.982c1.708,0.417,3.44,0.62,5.16,0.62c5.273,0,10.437-1.915,14.469-5.492
			C510.013,356.913,512.696,349.844,511.843,342.748z M494.574,350.28c-1.641,1.455-3.804,1.991-6.018,1.453L44.231,248.751
			c-20.368-4.964-32.899-25.574-27.935-45.943l21.969-90.131l7.481,1.823l12.24,69.907l134.089,28.968L160.862,77.439l20.936,4.419
			l98.418,154.909l150.201,32.962c35.334,8.649,61.983,38.712,66.328,74.833C497.005,346.741,496.216,348.825,494.574,350.28z"/>
	</g>
</g>
<g>
</g>
<g>
</g>
<g>
</g>
<g>
</g>
<g>
</g>
<g>
</g>
<g>
</g>
<g>
</g>
<g>
</g>
<g>
</g>
<g>
</g>
<g>
</g>
<g>
</g>
<g>
</g>
<g>
</g>
</svg>
