<svg id="Capa_1" enable-background="new 0 0 511.985 511.985" height="512" viewBox="0 0 511.985 511.985" width="512" xmlns="http://www.w3.org/2000/svg"><g><path d="m336.146 159.291c4.142 0 7.5-3.358 7.5-7.5v-8.016c0-4.142-3.358-7.5-7.5-7.5s-7.5 3.358-7.5 7.5v8.016c0 4.142 3.358 7.5 7.5 7.5z"/><path d="m328.646 207.903c0 4.142 3.358 7.5 7.5 7.5s7.5-3.358 7.5-7.5v-8.016c0-4.142-3.358-7.5-7.5-7.5s-7.5 3.358-7.5 7.5z"/><path d="m432.34 183.339c4.142 0 7.5-3.358 7.5-7.5s-3.358-7.5-7.5-7.5h-24.959c-.797-7.623-2.808-14.885-5.813-21.611l21.634-12.491c3.587-2.071 4.816-6.658 2.745-10.245s-6.66-4.815-10.245-2.745l-21.651 12.5c-4.416-6.058-9.755-11.398-15.814-15.814l12.5-21.651c2.071-3.587.842-8.174-2.745-10.245-3.587-2.073-8.174-.843-10.245 2.745l-12.491 21.634c-6.726-3.005-13.989-5.016-21.611-5.813v-24.958c0-4.142-3.358-7.5-7.5-7.5s-7.5 3.358-7.5 7.5v24.959c-7.623.797-14.885 2.808-21.611 5.813l-12.49-21.634c-2.071-3.588-6.658-4.817-10.245-2.745-3.587 2.071-4.816 6.658-2.745 10.245l12.5 21.651c-6.058 4.416-11.397 9.755-15.813 15.814l-21.65-12.5c-3.588-2.072-8.174-.842-10.245 2.745s-.842 8.174 2.745 10.245l21.634 12.491c-3.005 6.726-5.016 13.989-5.813 21.611h-24.959c-4.142 0-7.5 3.358-7.5 7.5s3.358 7.5 7.5 7.5h24.963c.785 7.475 2.739 14.779 5.783 21.626l-21.609 12.474c-3.587 2.071-4.816 6.658-2.745 10.245 1.389 2.406 3.91 3.751 6.502 3.751 1.272 0 2.562-.324 3.743-1.006l27.769-16.032c3.587-2.071 4.816-6.658 2.745-10.245-.028-.049-.061-.092-.09-.14-4.904-8.531-7.497-18.269-7.497-28.175 0-31.226 25.404-56.629 56.629-56.629 31.226 0 56.629 25.404 56.629 56.629s-25.404 56.629-56.629 56.629c-9.906 0-19.645-2.593-28.175-7.497-.048-.029-.091-.062-.139-.09-3.587-2.072-8.174-.842-10.245 2.745l-16.032 27.769c-2.071 3.587-.842 8.174 2.745 10.245 1.181.682 2.471 1.006 3.743 1.006 2.592 0 5.113-1.346 6.502-3.751l12.476-21.609c6.846 3.044 14.15 4.998 21.625 5.783v24.963c0 4.142 3.358 7.5 7.5 7.5s7.5-3.358 7.5-7.5v-24.959c7.623-.797 14.885-2.808 21.611-5.813l12.491 21.634c1.389 2.406 3.91 3.751 6.502 3.751 1.272 0 2.562-.325 3.743-1.006 3.587-2.071 4.816-6.658 2.745-10.245l-12.5-21.65c6.058-4.416 11.397-9.755 15.813-15.813l21.651 12.5c1.181.682 2.471 1.006 3.743 1.006 2.592 0 5.113-1.346 6.502-3.751 2.071-3.587.842-8.174-2.745-10.245l-21.634-12.49c3.005-6.726 5.016-13.989 5.813-21.611z"/><path d="m368.211 183.339c4.142 0 7.5-3.358 7.5-7.5s-3.358-7.5-7.5-7.5h-8.016c-4.142 0-7.5 3.358-7.5 7.5s3.358 7.5 7.5 7.5z"/><path d="m304.082 183.339h8.016c4.142 0 7.5-3.358 7.5-7.5s-3.358-7.5-7.5-7.5h-8.016c-4.142 0-7.5 3.358-7.5 7.5s3.358 7.5 7.5 7.5z"/><path d="m336.146 0c-96.958 0-175.838 78.881-175.838 175.839 0 45.786 17.597 87.536 46.375 118.857l-38.875 38.875-.365-.365c-4.445-4.445-10.354-6.893-16.64-6.893s-12.195 2.448-16.64 6.893l-29.717 29.716c-2.929 2.929-2.929 7.678 0 10.606 2.928 2.929 7.677 2.929 10.606 0l3.685-3.685 23.403 23.403-98.906 98.907c-6.452 6.452-16.95 6.452-23.403 0-6.452-6.452-6.452-16.951 0-23.403l73.118-73.117c2.929-2.929 2.929-7.678 0-10.606-2.929-2.929-7.678-2.929-10.606 0l-73.118 73.117c-12.3 12.301-12.3 32.315 0 44.616 6.15 6.15 14.229 9.225 22.308 9.225s16.158-3.075 22.308-9.225l124.938-124.938c4.445-4.445 6.893-10.354 6.893-16.64s-2.448-12.195-6.893-16.64l-.365-.365 38.875-38.875c31.321 28.778 73.07 46.375 118.857 46.375 96.958 0 175.839-78.881 175.839-175.838 0-96.958-78.881-175.839-175.839-175.839zm-167.974 367.215-15.425 15.425-23.403-23.403 15.425-15.425c1.611-1.612 3.754-2.499 6.033-2.499s4.421.887 6.033 2.499l11.336 11.337c1.612 1.611 2.499 3.754 2.499 6.033s-.886 4.422-2.498 6.033zm167.974-30.538c-88.687 0-160.838-72.152-160.838-160.838 0-88.687 72.152-160.839 160.838-160.839 88.687 0 160.839 72.152 160.839 160.839 0 88.686-72.152 160.838-160.839 160.838z"/><path d="m448.987 86.913c-2.565-3.251-7.282-3.808-10.534-1.242-3.251 2.566-3.808 7.282-1.242 10.534 18.127 22.973 27.709 50.51 27.709 79.634 0 71.006-57.768 128.774-128.774 128.774s-128.774-57.768-128.774-128.774 57.768-128.774 128.774-128.774c29.124 0 56.661 9.582 79.634 27.709 3.252 2.566 7.968 2.011 10.534-1.242 2.566-3.252 2.01-7.968-1.242-10.534-25.646-20.237-56.397-30.934-88.926-30.934-79.277 0-143.774 64.497-143.774 143.774s64.497 143.774 143.774 143.774 143.774-64.497 143.774-143.774c.001-32.528-10.696-63.279-30.933-88.925z"/></g></svg>